<svg xmlns="http://www.w3.org/2000/svg" aria-hidden="true" style="position:absolute;width:0;height:0;overflow:hidden">
    <defs>

        <symbol id="arrow" viewBox="0 0 32 32">
            <path
                d="M16.706 21.707a1.002 1.002 0 0 1-1.414 0l-10-10a.996.996 0 0 1 .025-1.388 1.002 1.002 0 0 1 1.388-.025l9.293 9.293 9.293-9.293a1.013 1.013 0 0 1 .714-.318.993.993 0 0 1 .725.293.992.992 0 0 1 .293.725 1.001 1.001 0 0 1-.318.714l-10 10z" />
        </symbol>

        <symbol id="eye-off" viewBox="0 0 24 24">
            <path
                d="M4.495 7.44c-.948.678-1.717 1.402-2.306 2.04a3.679 3.679 0 0 0 0 5.04C3.917 16.391 7.19 19 12 19c1.296 0 2.48-.19 3.552-.502l-1.662-1.663A10.77 10.77 0 0 1 12 17c-4.033 0-6.812-2.18-8.341-3.837a1.68 1.68 0 0 1 0-2.326 12.972 12.972 0 0 1 2.273-1.96L4.495 7.442Z" />
            <path
                d="M8.533 11.478a3.5 3.5 0 0 0 3.983 3.983l-3.983-3.983ZM15.466 12.447l-3.919-3.919a3.5 3.5 0 0 1 3.919 3.919Z" />
            <path
                d="M18.112 15.093a12.99 12.99 0 0 0 2.23-1.93 1.68 1.68 0 0 0 0-2.326C18.811 9.18 16.032 7 12 7c-.64 0-1.25.055-1.827.154L8.505 5.486A12.623 12.623 0 0 1 12 5c4.811 0 8.083 2.609 9.81 4.48a3.679 3.679 0 0 1 0 5.04c-.58.629-1.334 1.34-2.263 2.008l-1.435-1.435ZM2.008 3.422a1 1 0 1 1 1.414-1.414L22 20.586A1 1 0 1 1 20.586 22L2.008 3.422Z" />
        </symbol>

        <symbol id="eye-on" viewBox="0 0 24 24">
            <path fill-rule="evenodd" clip-rule="evenodd"
                d="M11.994 15.5a3.5 3.5 0 1 0 0-7 3.5 3.5 0 0 0 0 7Zm0-2.006a1.494 1.494 0 1 1 0-2.988 1.494 1.494 0 0 1 0 2.988Z" />
            <path fill-rule="evenodd" clip-rule="evenodd"
                d="M12 5C7.189 5 3.917 7.609 2.19 9.48a3.679 3.679 0 0 0 0 5.04C3.916 16.391 7.188 19 12 19c4.811 0 8.083-2.609 9.81-4.48a3.679 3.679 0 0 0 0-5.04C20.084 7.609 16.812 5 12 5Zm-8.341 5.837C5.189 9.18 7.967 7 12 7c4.033 0 6.812 2.18 8.341 3.837a1.68 1.68 0 0 1 0 2.326C18.811 14.82 16.033 17 12 17c-4.033 0-6.812-2.18-8.341-3.837a1.68 1.68 0 0 1 0-2.326Z" />
        </symbol>

        <symbol id="login" viewBox="0 0 32 32">
            <path stroke-linejoin="round" stroke-linecap="round" stroke-width="3.2"
                d="M20 4h1.6c2.24 0 3.36 0 4.216.436a3.996 3.996 0 0 1 1.748 1.748C28 7.04 28 8.16 28 10.4v11.2c0 2.24 0 3.36-.436 4.216a4.001 4.001 0 0 1-1.748 1.748C24.96 28 23.84 28 21.6 28H20M13.333 9.333 20 16m0 0-6.667 6.667M20 16H4" />
        </symbol>

        <symbol id="logout" viewBox="0 0 32 32">
            <path stroke-linecap="round" stroke-linejoin="round" stroke-width="1.333"
                d="M21 12V7a3.004 3.004 0 0 0-3-3h-8a3.004 3.004 0 0 0-3 3v18a3.004 3.004 0 0 0 3 3h8a3.004 3.004 0 0 0 3-3v-5m4 0 4-4m0 0-4-4m4 4H12" />
        </symbol>

        <symbol id="moon-stars" viewBox="0 0 16 16">
            <path
                d="M6 .278a.77.77 0 0 1 .08.858 7.2 7.2 0 0 0-.878 3.46c0 4.021 3.278 7.277 7.318 7.277q.792-.001 1.533-.16a.79.79 0 0 1 .81.316.73.73 0 0 1-.031.893A8.35 8.35 0 0 1 8.344 16C3.734 16 0 12.286 0 7.71 0 4.266 2.114 1.312 5.124.06A.75.75 0 0 1 6 .278" />
            <path
                d="M10.794 3.148a.217.217 0 0 1 .412 0l.387 1.162c.173.518.579.924 1.097 1.097l1.162.387a.217.217 0 0 1 0 .412l-1.162.387a1.73 1.73 0 0 0-1.097 1.097l-.387 1.162a.217.217 0 0 1-.412 0l-.387-1.162A1.73 1.73 0 0 0 9.31 6.593l-1.162-.387a.217.217 0 0 1 0-.412l1.162-.387a1.73 1.73 0 0 0 1.097-1.097zM13.863.099a.145.145 0 0 1 .274 0l.258.774c.115.346.386.617.732.732l.774.258a.145.145 0 0 1 0 .274l-.774.258a1.16 1.16 0 0 0-.732.732l-.258.774a.145.145 0 0 1-.274 0l-.258-.774a1.16 1.16 0 0 0-.732-.732l-.774-.258a.145.145 0 0 1 0-.274l.774-.258c.346-.115.617-.386.732-.732z" />
        </symbol>

        <symbol id="sun" viewBox="0 0 16 16">
            <path
                d="M8 12a4 4 0 1 0 0-8 4 4 0 0 0 0 8M8 0a.5.5 0 0 1 .5.5v2a.5.5 0 0 1-1 0v-2A.5.5 0 0 1 8 0m0 13a.5.5 0 0 1 .5.5v2a.5.5 0 0 1-1 0v-2A.5.5 0 0 1 8 13m8-5a.5.5 0 0 1-.5.5h-2a.5.5 0 0 1 0-1h2a.5.5 0 0 1 .5.5M3 8a.5.5 0 0 1-.5.5h-2a.5.5 0 0 1 0-1h2A.5.5 0 0 1 3 8m10.657-5.657a.5.5 0 0 1 0 .707l-1.414 1.415a.5.5 0 1 1-.707-.708l1.414-1.414a.5.5 0 0 1 .707 0m-9.193 9.193a.5.5 0 0 1 0 .707L3.05 13.657a.5.5 0 0 1-.707-.707l1.414-1.414a.5.5 0 0 1 .707 0m9.193 2.121a.5.5 0 0 1-.707 0l-1.414-1.414a.5.5 0 0 1 .707-.707l1.414 1.414a.5.5 0 0 1 0 .707M4.464 4.465a.5.5 0 0 1-.707 0L2.343 3.05a.5.5 0 1 1 .707-.707l1.414 1.414a.5.5 0 0 1 0 .708" />
        </symbol>

        <symbol id="settings" viewBox="0 0 32 32">
            <path stroke-linecap="round" stroke-linejoin="round" stroke-width="1.333"
                d="M12.792 5.253A1.5 1.5 0 0 1 14.272 4h3.457c.733 0 1.36.531 1.48 1.253l.284 1.708c.084.499.417.915.86 1.16.099.053.196.111.293.169.432.261.96.343 1.433.165l1.623-.608a1.498 1.498 0 0 1 1.826.654l1.728 2.996c.177.308.24.668.177 1.018s-.249.665-.523.89l-1.337 1.103c-.391.32-.584.817-.575 1.323.002.113.002.227 0 .34-.009.504.184 1 .573 1.32l1.34 1.104c.565.467.712 1.272.347 1.907l-1.731 2.996a1.499 1.499 0 0 1-1.826.655l-1.623-.608c-.473-.177-1-.096-1.435.165a8.597 8.597 0 0 1-.293.171c-.441.244-.775.66-.859 1.159l-.284 1.707a1.5 1.5 0 0 1-1.48 1.255h-3.459c-.733 0-1.36-.531-1.48-1.253l-.284-1.708c-.083-.499-.416-.915-.859-1.16a9.308 9.308 0 0 1-.293-.169c-.433-.261-.96-.343-1.435-.165l-1.623.608a1.5 1.5 0 0 1-1.825-.653L4.74 20.506a1.5 1.5 0 0 1 .347-1.908l1.339-1.103c.389-.32.583-.817.573-1.323a9.634 9.634 0 0 1 0-.34c.009-.504-.184-1-.573-1.32l-1.339-1.104a1.502 1.502 0 0 1-.347-1.907l1.729-2.996a1.497 1.497 0 0 1 1.826-.654l1.621.608c.475.177 1.001.096 1.435-.165.096-.059.195-.116.293-.171.443-.244.776-.66.859-1.159l.285-1.708z" />
            <path stroke-linecap="round" stroke-linejoin="round" stroke-width="1.333"
                d="M20 16a4.003 4.003 0 0 1-4 4 4.003 4.003 0 0 1-4-4 4.003 4.003 0 0 1 4-4 4.003 4.003 0 0 1 4 4z" />
        </symbol>

        <symbol id="user" viewBox="0 0 32 32">
            <path stroke-width="1.333"
                d="M31.333 16c0 8.468-6.865 15.333-15.333 15.333S.667 24.468.667 16 7.532.667 16 .667 31.333 7.532 31.333 16z" />
            <path stroke-linecap="round" stroke-linejoin="round" stroke-width="1.333"
                d="M20.001 9.436c0 1.088-.421 2.132-1.172 2.901S17.061 13.539 16 13.539c-1.061 0-2.079-.432-2.829-1.202s-1.172-1.813-1.172-2.901c0-1.088.421-2.132 1.172-2.901S14.939 5.333 16 5.333c1.061 0 2.079.432 2.829 1.202s1.172 1.813 1.172 2.901zM8 24.881c.034-2.153.892-4.205 2.389-5.715S13.901 16.81 16 16.81c2.099 0 4.115.846 5.611 2.356s2.355 3.562 2.389 5.715a18.732 18.732 0 0 1-8 1.785c-2.855 0-5.564-.639-8-1.785z" />
        </symbol>

        <symbol id="user-avatar" viewBox="0 0 48 48">
            <path
                d="M35.75 28a4.25 4.25 0 0 1 4.245 4.043l.005.206V33c0 3.755-1.942 6.567-4.92 8.38C32.15 43.163 28.214 44 24 44s-8.15-.837-11.08-2.62c-2.888-1.758-4.801-4.455-4.915-8.041L8 33v-.751a4.25 4.25 0 0 1 4.044-4.244L12.25 28h23.5ZM24 4c5.523 0 10 4.477 10 10s-4.477 10-10 10-10-4.477-10-10S18.477 4 24 4Z" />
        </symbol>

    </defs>
</svg>