<svg xmlns="http://www.w3.org/2000/svg" version="1.1" xmlns:xlink="http://www.w3.org/1999/xlink" xmlns:svgjs="http://svgjs.dev/svgjs" width="1500" height="1500" viewBox="0 0 1500 1500"><rect width="1500" height="1500" fill="#ffffff"></rect><g transform="matrix(0.6666666666666666,0,0,0.6666666666666666,249.78425655976673,249.78425655976673)"><svg viewBox="0 0 343 343" data-background-color="#f4f4f5" preserveAspectRatio="xMidYMid meet" height="1500" width="1500" xmlns="http://www.w3.org/2000/svg" xmlns:xlink="http://www.w3.org/1999/xlink"><g id="tight-bounds" transform="matrix(1,0,0,1,0.07400000000001228,0.07400000000001228)"><svg viewBox="0 0 342.8515585177538 342.8515585177538" height="342.8515585177538" width="342.8515585177538"><g><svg></svg></g><g><svg viewBox="0 0 342.8515585177538 342.8515585177538" height="342.8515585177538" width="342.8515585177538"><g><path d="M0 171.426c0-94.676 76.75-171.426 171.426-171.426 94.676 0 171.426 76.75 171.426 171.426 0 94.676-76.75 171.426-171.426 171.426-94.676 0-171.426-76.75-171.426-171.426zM171.426 338.361c92.196 0 166.936-74.74 166.935-166.935 0-92.196-74.74-166.936-166.935-166.936-92.196 0-166.936 74.74-166.936 166.936 0 92.196 74.74 166.936 166.936 166.935z" data-fill-palette-color="tertiary" fill="#000000" stroke="transparent"></path><ellipse rx="164.56874808852183" ry="164.56874808852183" cx="171.4257792588769" cy="171.4257792588769" fill="#000000" stroke="transparent" stroke-width="0" fill-opacity="1" data-fill-palette-color="tertiary"></ellipse></g><g transform="matrix(1,0,0,1,64.84655864529836,146.52992433588997)"><svg viewBox="0 0 213.15844122715708 49.79170984597383" height="49.79170984597383" width="213.15844122715708"><g><svg viewBox="0 0 213.15844122715708 49.79170984597383" height="49.79170984597383" width="213.15844122715708"><g><svg viewBox="0 0 213.15844122715708 49.79170984597383" height="49.79170984597383" width="213.15844122715708"><g id="textblocktransform"><svg viewBox="0 0 213.15844122715708 49.79170984597383" height="49.79170984597383" width="213.15844122715708" id="textblock"><g><svg viewBox="0 0 213.15844122715708 49.79170984597383" height="49.79170984597383" width="213.15844122715708"><g transform="matrix(1,0,0,1,0,0)"><svg width="213.15844122715708" viewBox="3.22 -36.38 158.43 37.010000000000005" height="49.79170984597383" data-palette-color="#f6efd1"><path d="M7.62 0L3.22 0 3.22-36.38 15.53-36.38Q19.8-36.38 22.52-34.84 25.24-33.3 26.56-30.69 27.88-28.08 27.88-24.85L27.88-24.85Q27.88-21.66 26.57-19.02 25.27-16.38 22.55-14.83 19.82-13.28 15.58-13.28L15.58-13.28 6.79-13.28 6.79-17.19 15.43-17.19Q18.36-17.19 20.14-18.19 21.92-19.19 22.73-20.94 23.54-22.68 23.54-24.85L23.54-24.85Q23.54-27.05 22.73-28.77 21.92-30.49 20.13-31.48 18.33-32.47 15.38-32.47L15.38-32.47 7.62-32.47 7.62 0ZM32.08-36.38L36.23-36.38 36.23 0 32.08 0 32.08-36.38ZM49.6 0.63L49.6 0.63Q47.02 0.63 44.89-0.35 42.77-1.34 41.52-3.22 40.28-5.1 40.28-7.76L40.28-7.76Q40.28-10.11 41.21-11.56 42.13-13.01 43.68-13.85 45.23-14.7 47.1-15.11 48.97-15.53 50.87-15.77L50.87-15.77Q53.36-16.09 54.91-16.26 56.46-16.43 57.18-16.85 57.91-17.26 57.91-18.26L57.91-18.26 57.91-18.41Q57.91-21.02 56.48-22.47 55.05-23.93 52.14-23.93L52.14-23.93Q49.16-23.93 47.46-22.62 45.75-21.31 45.06-19.82L45.06-19.82 41.06-21.24Q42.13-23.73 43.93-25.12 45.72-26.51 47.83-27.08 49.95-27.64 52-27.64L52-27.64Q53.32-27.64 55.02-27.33 56.73-27.03 58.36-26.06 59.98-25.1 61.04-23.16 62.1-21.22 62.1-17.97L62.1-17.97 62.1 0 57.91 0 57.91-3.71 57.71-3.71Q57.29-2.83 56.29-1.82 55.29-0.81 53.64-0.09 52 0.63 49.6 0.63ZM50.24-3.13L50.24-3.13Q52.73-3.13 54.44-4.1 56.15-5.08 57.03-6.63 57.91-8.18 57.91-9.86L57.91-9.86 57.91-13.72Q57.64-13.4 56.75-13.15 55.85-12.89 54.69-12.7 53.54-12.5 52.44-12.37 51.34-12.23 50.68-12.16L50.68-12.16Q49.04-11.94 47.63-11.46 46.21-10.99 45.34-10.06 44.48-9.13 44.48-7.52L44.48-7.52Q44.48-5.35 46.1-4.24 47.72-3.13 50.24-3.13ZM71.62-16.41L71.62-16.41 71.62 0 67.47 0 67.47-27.29 71.48-27.29 71.48-23 71.87-23Q72.82-25.1 74.77-26.37 76.73-27.64 79.83-27.64L79.83-27.64Q82.59-27.64 84.66-26.51 86.74-25.39 87.9-23.11 89.06-20.83 89.06-17.33L89.06-17.33 89.06 0 84.9 0 84.9-17.04Q84.9-20.24 83.22-22.06 81.54-23.88 78.63-23.88L78.63-23.88Q76.63-23.88 75.04-23 73.45-22.12 72.54-20.46 71.62-18.8 71.62-16.41ZM98.57-16.41L98.57-16.41 98.57 0 94.42 0 94.42-27.29 98.43-27.29 98.43-23 98.82-23Q99.77-25.1 101.72-26.37 103.68-27.64 106.78-27.64L106.78-27.64Q109.54-27.64 111.61-26.51 113.69-25.39 114.85-23.11 116.01-20.83 116.01-17.33L116.01-17.33 116.01 0 111.86 0 111.86-17.04Q111.86-20.24 110.17-22.06 108.49-23.88 105.58-23.88L105.58-23.88Q103.58-23.88 101.99-23 100.41-22.12 99.49-20.46 98.57-18.8 98.57-16.41ZM132.8 0.59L132.8 0.59Q128.87 0.59 126-1.17 123.13-2.93 121.59-6.09 120.06-9.25 120.06-13.43L120.06-13.43Q120.06-17.63 121.57-20.83 123.08-24.02 125.83-25.83 128.58-27.64 132.26-27.64L132.26-27.64Q134.39-27.64 136.49-26.93 138.59-26.22 140.31-24.63 142.03-23.05 143.05-20.43 144.08-17.82 144.08-14.01L144.08-14.01 144.08-12.21 123.03-12.21 123.03-15.82 141.81-15.82 139.88-14.45Q139.88-17.19 139.03-19.31 138.17-21.44 136.47-22.66 134.78-23.88 132.26-23.88L132.26-23.88Q129.75-23.88 127.95-22.64 126.16-21.41 125.21-19.43 124.26-17.46 124.26-15.19L124.26-15.19 124.26-12.79Q124.26-9.69 125.33-7.54 126.4-5.4 128.33-4.28 130.26-3.17 132.8-3.17L132.8-3.17Q134.44-3.17 135.78-3.65 137.12-4.13 138.1-5.09 139.07-6.05 139.59-7.47L139.59-7.47 143.64-6.3Q143.01-4.25 141.5-2.7 140-1.15 137.78-0.28 135.56 0.59 132.8 0.59ZM152.18 0L148.03 0 148.03-27.29 152.04-27.29 152.04-23.14 152.33-23.14Q153.09-25.17 155.05-26.43 157.02-27.69 159.46-27.69L159.46-27.69Q159.92-27.69 160.61-27.67 161.29-27.66 161.65-27.64L161.65-27.64 161.65-23.39Q161.44-23.44 160.68-23.54 159.92-23.63 159.07-23.63L159.07-23.63Q157.09-23.63 155.53-22.8 153.96-21.97 153.07-20.53 152.18-19.09 152.18-17.24L152.18-17.24 152.18 0Z" opacity="1" transform="matrix(1,0,0,1,0,0)" fill="#ffffff" class="wordmark-text-0" data-fill-palette-color="quaternary" id="text-0"></path></svg></g></svg></g></svg></g></svg></g></svg></g></svg></g></svg></g><defs></defs></svg><rect width="342.8515585177538" height="342.8515585177538" fill="none" stroke="none" visibility="hidden"></rect></g></svg></g></svg>